<?xml version="1.0" encoding="UTF-8" standalone="no"?>
<!-- Created with Inkscape (http://www.inkscape.org/) -->
<svg id="svg2" xmlns:rdf="http://www.w3.org/1999/02/22-rdf-syntax-ns#" xmlns="http://www.w3.org/2000/svg" height="192mm" width="341mm" version="1.1" xmlns:cc="http://creativecommons.org/ns#" xmlns:dc="http://purl.org/dc/elements/1.1/" viewBox="0 0 1208.2677 680.31496">
 <metadata id="metadata7">
  <rdf:RDF>
   <cc:Work rdf:about="">
    <dc:format>image/svg+xml</dc:format>
    <dc:type rdf:resource="http://purl.org/dc/dcmitype/StillImage"/>
    <dc:title/>
   </cc:Work>
  </rdf:RDF>
 </metadata>
 <g id="layer1" transform="translate(0 -372.05)" fill="#4e42f4">
  <circle id="path4140" opacity=".1" cx="1202.1" cy="1008.5" r="178.3"/>
  <ellipse id="path4140-6" opacity=".1" rx="41.797" ry="43.68" cy="1077.7" cx="987.74"/>
  <ellipse id="path4140-6-1" opacity=".1" rx="23.976" ry="25.055" cy="801.02" cx="1193.4"/>
  <ellipse id="path4140-6-6" opacity=".1" rx="5.264" ry="5.5011" cy="793.05" cx="1067.6"/>
  <ellipse id="path4140-6-7" opacity=".1" rx="29.714" ry="31.053" cy="813.46" cx="1103"/>
  <ellipse id="path4140-6-1-3" opacity=".1" rx="3.515" ry="3.6733" cy="830.91" cx="1157.2"/>
  <ellipse id="path4140-6-1-3-2" opacity=".1" rx="3.515" ry="3.6733" cy="854.84" cx="1060.6"/>
  <ellipse id="path4140-6-1-3-2-1" opacity=".1" rx="6.9325" ry="7.2447" cy="815.55" cx="1146.8"/>
  <ellipse id="path4140-6-1-3-2-1-1" opacity=".1" rx="4.1985" ry="4.3876" cy="801.48" cx="1161.7"/>
  <ellipse id="path4140-6-1-3-2-0" opacity=".1" rx="14.109" ry="14.745" cy="860.91" cx="1040.5"/>
  <ellipse id="path4140-6-1-3-2-9" opacity=".1" rx="10.091" ry="10.546" cy="833.47" cx="1027.1"/>
  <ellipse id="path4140-6-1-3-2-9-4" opacity=".1" rx="24.362" ry="25.459" cy="900.36" cx="1022.5"/>
  <ellipse id="path4140-6-2-2-1-7-3" opacity=".1" rx="8.4997" ry="8.8826" cy="901.01" cx="965.98"/>
  <ellipse id="path4140-6-2-2-1-7-3-2" opacity=".1" rx="5.2967" ry="5.5353" cy="851.63" cx="1011.1"/>
  <ellipse id="path4140-6-2-2-1-7-3-6" opacity=".1" rx="3.6667" ry="3.8319" cy="886.7" cx="992.19"/>
  <ellipse id="path4140-6-2-2-1-7-3-8" opacity=".1" rx="4.2279" ry="4.4183" cy="871.51" cx="1000.7"/>
  <ellipse id="path4140-6-2-2-1-7-3-0" opacity=".1" rx="2.5191" ry="2.6326" cy="854.21" cx="997.82"/>
  <ellipse id="path4140-6-2-2-1-7-3-8-3" opacity=".1" rx="1.9834" ry="2.0728" cy="879.07" cx="984.24"/>
  <ellipse id="path4140-6-2-2-1-7-3-8-6" opacity=".1" rx="1.4939" ry="1.5612" cy="885.09" cx="968.23"/>
  <ellipse id="path4140-6-2-2-18" opacity=".1" rx="2.9878" ry="3.1224" cy="1013" cx="968.63"/>
  <ellipse id="path4140-6-2-2-4" opacity=".1" rx="7.7" ry="8.0469" cy="1025.5" cx="976.12"/>
  <ellipse id="path4140-6-2-2-4-6" opacity=".1" rx="10.358" ry="10.825" cy="1051.1" cx="929.22"/>
  <ellipse id="path4140-6-2-2-4-6-5" opacity=".1" rx="4.8024" ry="5.0187" cy="1041.5" cx="947.27"/>
  <ellipse id="path4140-6-2-2-4-6-5-3" opacity=".1" rx="8.7167" ry="9.1093" cy="1024.8" cx="955.73"/>
  <ellipse id="path4140-6-2-2-4-6-5-3-9" opacity=".1" rx="2.7962" ry="2.9222" cy="1031" cx="941.35"/>
  <ellipse id="path4140-6-2-2-4-6-5-3-9-6" opacity=".1" rx="1.4671" ry="1.5332" cy="1022.4" cx="942.41"/>
  <ellipse id="path4140-6-2-2-4-6-5-3-9-7" opacity=".1" rx="1.3463" ry="1.4069" cy="1017" cx="946.33"/>
  <ellipse id="path4140-6-2-2-4-6-5-3-9-2" opacity=".1" rx=".86298" ry=".90186" cy="1012.7" cx="943.82"/>
  <ellipse id="path4140-6-2-2-4-6-5-3-9-7-3" opacity=".1" rx="1.8296" ry="1.912" cy="1012" cx="953.56"/>
  <ellipse id="path4140-6-2-2-4-6-5-3-9-7-3-0" opacity=".1" rx="1.1046" ry="1.1544" cy="1011.5" cx="961.72"/>
  <ellipse id="path4140-6-2-2-1-7-1" opacity=".1" rx="43.366" ry="45.32" cy="961.4" cx="980.61"/>
  <ellipse id="path4140-6-2-2-4-6-5-3-0" opacity=".1" rx="4.9667" ry="5.1904" cy="1002" cx="929.58"/>
  <ellipse id="path4140-6-2-2-4-6-5-3-1" opacity=".1" rx="9.9128" ry="10.359" cy="988.26" cx="906.77"/>
  <ellipse id="path4140-6-2-2-4-6-5-3-1-5" opacity=".1" rx="3.0778" ry="3.2165" cy="1005.2" cx="914.71"/>
  <ellipse id="path4140-6-2-2-4-6-5-3-1-4" opacity=".1" rx="12.818" ry="13.395" cy="911.8" cx="938.48"/>
  <ellipse id="path4140-6-2-2-4-6-5-3-1-41" opacity=".1" rx="4.6157" ry="4.8236" cy="892.88" cx="926.7"/>
  <ellipse id="path4140-6-2-2-4-6-5-3-1-50" opacity=".1" rx="3.2487" ry="3.3951" cy="881.45" cx="933.55"/>
  <ellipse id="path4140-6-2-2-4-6-5-3-0-6" opacity=".1" rx="2.2881" ry="2.3912" cy="1003" cx="946.36"/>
  <ellipse id="path4140-6-2-2-4-6-5-3-1-52" opacity=".1" rx="16.577" ry="17.324" cy="954.34" cx="910.35"/>
  <ellipse id="path4140-6-2-2-4-6-5-3-1-6" opacity=".1" rx="6.4953" ry="6.7879" cy="980.59" cx="880.62"/>
  <ellipse id="path4140-6-2-2-4-6-5-3-1-7" opacity=".1" rx="7.0557" ry="7.3735" cy="946.43" cx="876.54"/>
  <ellipse id="path4140-6-7-2" opacity=".1" rx="2.3487" ry="2.4545" cy="756.2" cx="1034.3"/>
  <ellipse id="path4140-6-7-2-9" opacity=".1" rx="15.572" ry="16.274" cy="766.81" cx="1075.3"/>
  <ellipse id="path4140-6-7-2-1" opacity=".1" rx="5.9756" ry="6.2448" cy="754.62" cx="1045.5"/>
  <ellipse id="path4140-6-7-2-2" opacity=".1" rx="3.5569" ry="3.7171" cy="728.36" cx="1048.1"/>
  <ellipse id="path4140-6-7-2-5" opacity=".1" rx="8.6316" ry="9.0204" cy="723.56" cx="1206.3"/>
  <ellipse id="path4140-6-1-3-2-9-5" opacity=".1" rx="4.2915" ry="4.4848" cy="822.9" cx="1066.4"/>
  <ellipse id="path4140-6-7-2-9-6" opacity=".1" rx="6.9858" ry="7.3005" cy="771.93" cx="1108.6"/>
  <ellipse id="path4140-6-7-2-9-6-7" opacity=".1" rx="2.9452" ry="3.0778" cy="758.34" cx="1100.1"/>
  <ellipse id="path4140-6-7-2-9-6-7-9" opacity=".1" rx="1.2536" ry="1.3101" cy="752.85" cx="1106.7"/>
  <ellipse id="path4140-6-1-3-2-9-41" opacity=".1" rx="2.4897" ry="2.6019" cy="825.91" cx="1051.9"/>
  <ellipse id="path4140-6-1-3-2-9-41-9" opacity=".1" rx="6.1145" ry="6.39" cy="839.73" cx="1052.2"/>
  <ellipse id="path4140-6-1-3-2-5" opacity=".1" rx="9.0507" ry="9.4584" cy="849.71" cx="1078.8"/>
  <ellipse id="path4140-6-1-3-2-6" opacity=".1" rx="1.8062" ry="1.8876" cy="835.59" cx="1070.4"/>
  <ellipse id="path4140-6-1-3-2-9-7" opacity=".1" rx="3.5883" ry="3.7499" cy="828.09" cx="1009.2"/>
  <ellipse id="path4140-6-1-3-2-9-7-0" opacity=".1" rx="1.4417" ry="1.5066" cy="822.78" cx="1016.6"/>
  <ellipse id="path4140-6-1-3-2-9-7-0-8" opacity=".1" rx="3.1937" ry="3.3375" cy="816.93" cx="1026.9"/>
  <ellipse id="path4140-6-1-3-2-9-41-1" opacity=".1" rx="2.8522" ry="2.9807" cy="821.79" cx="1036.7"/>
  <ellipse id="path4140-6-1-3-2-9-41-1-6" opacity=".1" rx="1.1606" ry="1.2129" cy="829.24" cx="1042"/>
  <ellipse id="path4140-6-1-6" opacity=".1" rx="4.0729" ry="4.2564" cy="797.18" cx="1152.4"/>
  <ellipse id="path4140-6-1-6-9" opacity=".1" rx="20.264" ry="21.176" cy="754.62" cx="1213"/>
  <ellipse id="path4140-6-7-2-5-8" opacity=".1" rx="2.4695" ry="2.5807" cy="740.35" cx="1192.8"/>
  <ellipse id="path4140-6-7-2-5-7" opacity=".1" rx="4.4027" ry="4.601" cy="729.49" cx="1190.9"/>
  <ellipse id="path4140-6-7-2-5-84" opacity=".1" rx="8.39" ry="8.7679" cy="763.71" cx="1179.7"/>
  <ellipse id="path4140-6-7-2-5-3" opacity=".1" rx="4.7652" ry="4.9798" cy="745.78" cx="1185.2"/>
  <ellipse id="path4140-6-7-2-5-7-6" opacity=".1" rx="1.5029" ry="1.5706" cy="728.36" cx="1182.8"/>
  <ellipse id="path4140-6-7-2-5-7-6-5" opacity=".1" rx="4.886" ry="5.1061" cy="710.17" cx="1194.9"/>
  <ellipse id="path4140-6-7-2-5-7-6-5-1" opacity=".1" rx="2.3606" ry="2.467" cy="717.36" cx="1187.9"/>
  <ellipse id="path4140-6-7-2-5-7-6-5-1-9" opacity=".1" rx="1.3505" ry="1.4113" cy="714.01" cx="1183.4"/>
  <ellipse id="path4140-6-7-2-5-7-6-5-1-9-3" opacity=".1" rx=".62553" ry=".65370" cy="718.25" cx="1183.7"/>
  <ellipse id="path4140-6-7-2-5-7-6-5-3" opacity=".1" rx="2.2375" ry="2.3383" cy="708" cx="1202.6"/>
  <ellipse id="path4140-6-7-2-5-7-6-5-3-4" opacity=".1" rx="1.0841" ry="1.1329" cy="704.47" cx="1200"/>
  <ellipse id="path4140-6-7-2-5-7-6-5-3-4-0" opacity=".1" rx=".36978" ry=".38643" cy="707.08" cx="1188"/>
  <ellipse id="path4140-6-7-2-5-7-6-5-3-4-0-9" opacity=".1" rx="1.0106" ry="1.0561" cy="706.06" cx="1189.8"/>
  <ellipse id="path4140-6-7-2-5-7-6-5-3-4-0-9-7" opacity=".1" rx=".49793" ry=".52036" cy="704.61" cx="1193.2"/>
  <ellipse id="path4140-6-7-2-5-7-6-5-3-4-0-9-7-9" opacity=".1" rx=".18543" ry=".19379" cy="704.89" cx="1196.9"/>
 </g>
</svg>
